<?xml version="1.0" encoding="UTF-8" standalone="no"?>
<svg
   xmlns:dc="http://purl.org/dc/elements/1.1/"
   xmlns:cc="http://creativecommons.org/ns#"
   xmlns:rdf="http://www.w3.org/1999/02/22-rdf-syntax-ns#"
   xmlns:svg="http://www.w3.org/2000/svg"
   xmlns="http://www.w3.org/2000/svg"
   xmlns:sodipodi="http://sodipodi.sourceforge.net/DTD/sodipodi-0.dtd"
   xmlns:inkscape="http://www.inkscape.org/namespaces/inkscape"
   version="1.1"
   x="0px"
   y="0px"
   viewBox="0 0 32 32"
   xml:space="preserve"
   id="svg30"
   sodipodi:docname="toolbox_icon.svg"
   width="32"
   height="32"
   inkscape:export-filename="D:\Repos\GH-Misc-Toolbox\Icons\toolbox_icon_32_32.png"
   inkscape:export-xdpi="96"
   inkscape:export-ydpi="96"
   inkscape:version="1.0.2 (e86c870879, 2021-01-15, custom)"><metadata
     id="metadata36"><rdf:RDF><cc:Work
         rdf:about=""><dc:format>image/svg+xml</dc:format><dc:type
           rdf:resource="http://purl.org/dc/dcmitype/StillImage" /><dc:title></dc:title></cc:Work></rdf:RDF></metadata><defs
     id="defs34" /><sodipodi:namedview
     pagecolor="#ffffff"
     bordercolor="#666666"
     borderopacity="1"
     objecttolerance="10"
     gridtolerance="10"
     guidetolerance="10"
     inkscape:pageopacity="0"
     inkscape:pageshadow="2"
     inkscape:window-width="3700"
     inkscape:window-height="2126"
     id="namedview32"
     showgrid="false"
     inkscape:zoom="22.808436"
     inkscape:cx="28.821621"
     inkscape:cy="23.690061"
     inkscape:window-x="3829"
     inkscape:window-y="-11"
     inkscape:window-maximized="1"
     inkscape:current-layer="svg30" /><g
     id="g10"><path
       d="m 5273.1,2400.1 v -2 c 0,-2.8 -5,-4 -9.7,-4 -4.7,0 -9.7,1.3 -9.7,4 v 2 c 0,1.8 0.7,3.6 2,4.9 l 5,4.9 c 0.3,0.3 0.4,0.6 0.4,1 v 6.4 c 0,0.4 0.2,0.7 0.6,0.8 l 2.9,0.9 c 0.5,0.1 1,-0.2 1,-0.8 v -7.2 c 0,-0.4 0.2,-0.7 0.4,-1 l 5.1,-5 c 1.3,-1.3 2,-3.1 2,-4.9 z m -9.7,-0.1 c -4.8,0 -7.4,-1.3 -7.5,-1.8 v 0 c 0.1,-0.5 2.7,-1.8 7.5,-1.8 4.8,0 7.3,1.3 7.5,1.8 -0.2,0.5 -2.7,1.8 -7.5,1.8 z"
       id="path2" /><path
       d="m 5268.4,2410.3 c -0.6,0 -1,0.4 -1,1 0,0.6 0.4,1 1,1 h 4.3 c 0.6,0 1,-0.4 1,-1 0,-0.6 -0.4,-1 -1,-1 z"
       id="path4" /><path
       d="m 5272.7,2413.7 h -4.3 c -0.6,0 -1,0.4 -1,1 0,0.6 0.4,1 1,1 h 4.3 c 0.6,0 1,-0.4 1,-1 0,-0.6 -0.4,-1 -1,-1 z"
       id="path6" /><path
       d="m 5272.7,2417 h -4.3 c -0.6,0 -1,0.4 -1,1 0,0.6 0.4,1 1,1 h 4.3 c 0.6,0 1,-0.4 1,-1 0,-0.5 -0.4,-1 -1,-1 z"
       id="path8" /></g><path
     d="M 29.482519,14.950997 H 27.021582 V 7.4827149 c 0.692138,0 1.230467,-0.489724 1.153564,-1.0406632 l -0.615234,-4.40751 c 0,-0.1836467 -0.153809,-0.3060771 -0.384522,-0.3060771 h -2.691649 c -0.230713,0 -0.384521,0.1224304 -0.384521,0.3060771 l -0.538329,4.40751 c -0.07691,0.5509392 0.461424,1.0406632 1.153562,1.0406632 v 7.4682821 h -2.460935 c -0.69214,0 -1.230468,0.428509 -1.230468,0.979448 v 0.367293 c 0,0.550939 0.538328,0.979447 1.230468,0.979447 h 0.153808 v 0.918231 h -0.153808 c -0.69214,0 -1.230468,0.428508 -1.230468,0.979447 v 10.222976 c 0,0.55094 0.538328,0.979447 1.230468,0.979447 h 7.305904 c 0.69214,0 1.230468,-0.428507 1.230468,-0.979447 V 19.236078 c 0,-0.550939 -0.538328,-0.979447 -1.230468,-0.979447 H 29.405614 V 17.3384 h 0.153808 c 0.69214,0 1.230468,-0.428508 1.230468,-0.979447 v -0.367292 c -0.07691,-0.612155 -0.615233,-1.040664 -1.307371,-1.040664 z m -4.691161,12.059441 c 0,0.306077 -0.307617,0.550938 -0.692138,0.550938 -0.384522,0 -0.692138,-0.244861 -0.692138,-0.550938 v -5.203312 c 0,-0.306077 0.307616,-0.550939 0.692138,-0.550939 0.384521,0 0.692138,0.244862 0.692138,0.550939 z m 3.460691,0 c 0,0.306077 -0.307616,0.550938 -0.692137,0.550938 -0.384522,0 -0.692139,-0.244861 -0.692139,-0.550938 v -5.203312 c 0,-0.306077 0.307617,-0.550939 0.692139,-0.550939 0.384521,0 0.692137,0.244862 0.692137,0.550939 z"
     id="path12"
     style="stroke-width:0.686129" /><path
     d="m 18.562114,1.9121102 h -3.153076 c -0.307617,0 -0.615234,0.2448619 -0.615234,0.489724 v 0.4285075 h -4.15283 -1.9995103 c -0.3076171,0 -0.6152344,0 -0.8459473,0 -3.153074,0 -6.2292447,2.571048 -6.7675744,4.4075112 -0.15380851,0.489724 0.615234,0.8570164 1.0766595,0.489724 C 4.0272081,6.3808365 6.4112402,6.5032681 8.4107508,6.6256985 V 14.950997 H 6.6419531 c -0.6921387,0 -1.2304689,0.428509 -1.2304689,0.979448 v 0.367293 c 0,0.550939 0.5383302,0.979447 1.2304689,0.979447 h 0.1538085 v 0.918231 H 6.6419531 c -0.6921387,0 -1.2304689,0.428508 -1.2304689,0.979447 v 10.222976 c 0,0.55094 0.5383302,0.979447 1.2304689,0.979447 h 7.3059049 c 0.692137,0 1.230467,-0.428507 1.230467,-0.979447 V 19.236078 c 0,-0.550939 -0.53833,-0.979447 -1.230467,-0.979447 H 13.794049 V 17.3384 h 0.153809 c 0.692137,0 1.230467,-0.428508 1.230467,-0.979447 v -0.367292 c 0,-0.550939 -0.53833,-0.979447 -1.230467,-0.979447 H 12.332867 V 6.8705605 L 14.7169,6.9929909 v 0.4285087 c 0,0.2448609 0.307617,0.4897229 0.615234,0.4897229 h 3.153075 c 0.307618,0 0.615234,-0.244862 0.615234,-0.4897229 V 2.4630494 C 19.177348,2.1569721 18.86973,1.9121102 18.562114,1.9121102 Z M 9.2566981,27.010438 c 0,0.306077 -0.3076171,0.550938 -0.6921387,0.550938 -0.3845214,0 -0.6921387,-0.244861 -0.6921387,-0.550938 v -5.203312 c 0,-0.306077 0.3076173,-0.550939 0.6921387,-0.550939 0.3845216,0 0.6921387,0.244862 0.6921387,0.550939 z m 3.4606899,-5.264527 v 5.203311 c 0,0.306077 -0.307616,0.550939 -0.692137,0.550939 -0.384522,0 -0.692138,-0.244862 -0.692138,-0.550939 v -5.203311 c 0,-0.306077 0.307616,-0.550939 0.692138,-0.550939 0.384521,0.06122 0.692137,0.306077 0.692137,0.550939 z"
     id="path14"
     style="stroke-width:0.686129" /><path
     d="m 160.03567,55.004484 c 0,1.3 -1.1,2.5 -2.5,2.5 v 0 c -1.3,0 -2.5,-1.1 -2.5,-2.5 v -1.1 h -24.1 v 1.1 c 0,1.3 -1.1,2.5 -2.5,2.5 v 0 c -1.3,0 -2.5,-1.1 -2.5,-2.5 v -1.1 h -7 v 17.8 c 0,2.2 1.8,4 4,4 h 40.1 c 2.2,0 4,-1.8 4,-4 v -17.9 h -7 z"
     id="path16" /><path
     d="m 163.03567,38.904484 h -8.4 v -4.2 c 0,-3.4 -2.7,-6.1 -6.1,-6.1 h -11 c -3.4,0 -6.1,2.7 -6.1,6.1 v 4.2 h -8.4 c -2.2,0 -4,1.8 -4,4 v 7.4 h 7 v -1.1 c 0,-1.4 1.1,-2.5 2.5,-2.5 v 0 c 1.4,0 2.5,1.1 2.5,2.5 v 1.1 h 24.1 v -1.1 c 0,-1.4 1.1,-2.5 2.5,-2.5 v 0 c 1.4,0 2.5,1.1 2.5,2.5 v 1.1 h 7 v -7.4 c -0.1,-2.2 -1.9,-4 -4.1,-4 z m -12.7,0 h -14.7 v -4.2 c 0,-1 0.8,-1.9 1.9,-1.9 h 11 c 1,0 1.9,0.8 1.9,1.9 v 4.2 z"
     id="path18" /><text
     x="3.0690398"
     y="135.78178"
     fill="#000000"
     font-size="5px"
     font-weight="bold"
     font-family="'Helvetica Neue', Helvetica, Arial-Unicode, Arial, Sans-serif"
     id="text26">Created by Adrien Coquet</text><text
     x="3.0690398"
     y="140.78178"
     fill="#000000"
     font-size="5px"
     font-weight="bold"
     font-family="'Helvetica Neue', Helvetica, Arial-Unicode, Arial, Sans-serif"
     id="text28">from the Noun Project</text></svg>
